HIERARCHY
ROOT Hips
{
	OFFSET 0.00000 0.00000 0.00000
	CHANNELS 6 Xposition Yposition Zposition Zrotation Yrotation Xrotation 
	JOINT LHipJoint
	{
		OFFSET 0 0 0
		CHANNELS 3 Zrotation Yrotation Xrotation
		JOINT LeftHip
		{
			OFFSET 1.48416 -1.82041 0.59464
			CHANNELS 3 Zrotation Yrotation Xrotation
			JOINT LeftKnee
			{
				OFFSET 2.43280 -6.68407 0.00000
				CHANNELS 3 Zrotation Yrotation Xrotation
				JOINT LeftAnkle
				{
					OFFSET 2.68325 -7.37216 0.00000
					CHANNELS 3 Zrotation Yrotation Xrotation
					JOINT LeftToe
					{
						OFFSET 0.15365 -0.42214 1.91990
						CHANNELS 3 Zrotation Yrotation Xrotation
						End Site
						{
							OFFSET 0.00000 -0.00000 0.99320
						}
					}
				}
			}
		}
	}
	JOINT RHipJoint
	{
		OFFSET 0 0 0
		CHANNELS 3 Zrotation Yrotation Xrotation
		JOINT RightHip
		{
			OFFSET -1.70852 -1.82040 0.59464
			CHANNELS 3 Zrotation Yrotation Xrotation
			JOINT RightKnee
			{
				OFFSET -2.50396 -6.87957 0.00000
				CHANNELS 3 Zrotation Yrotation Xrotation
				JOINT RightAnkle
				{
					OFFSET -2.67204 -7.34139 0.00000
					CHANNELS 3 Zrotation Yrotation Xrotation
					JOINT RightToe
					{
						OFFSET -0.17346 -0.47657 2.02009
						CHANNELS 3 Zrotation Yrotation Xrotation
						End Site
						{
							OFFSET -0.00000 -0.00000 1.04609
						}
					}
				}
			}
		}
	}
	JOINT lowerback
	{
		OFFSET 0 0 0
		CHANNELS 3 Zrotation Yrotation Xrotation
		JOINT Chest
		{
			OFFSET -0.01022 1.99636 -0.30653
			CHANNELS 3 Zrotation Yrotation Xrotation
			JOINT Chest2
			{
				OFFSET -0.01683 2.01212 0.04808
				CHANNELS 3 Zrotation Yrotation Xrotation
				JOINT lowerneck
				{
					OFFSET 0 0 0
					CHANNELS 3 Zrotation Yrotation Xrotation
					JOINT Neck
					{
						OFFSET -0.03080 1.91178 0.03911
						CHANNELS 3 Zrotation Yrotation Xrotation
						JOINT Head
						{
							OFFSET 0.10605 1.89839 -0.23433
							CHANNELS 3 Zrotation Yrotation Xrotation
							End Site
							{
								OFFSET 0.03474 1.92469 -0.08609
							}
						}
					}
				}
				JOINT LeftCollar
				{
					OFFSET 0 0 0
					CHANNELS 3 Zrotation Yrotation Xrotation
					JOINT LeftShoulder
					{
						OFFSET 3.78977 1.27972 -0.24661
CHANNELS 3 Zrotation Xrotation Yrotation
						JOINT LeftElbow
						{
OFFSET 0 -5.641470 -0.000000
CHANNELS 3 Zrotation Xrotation Yrotation
							JOINT LeftWrist
							{
OFFSET 0 -2.864440 -0.000000
CHANNELS 3 Zrotation Xrotation Yrotation
								JOINT lhand
								{
									OFFSET 0 0 0
CHANNELS 3 Zrotation Xrotation Yrotation
									JOINT LFingers
									{
OFFSET 0 -0.722120 -0.000000
CHANNELS 3 Zrotation Xrotation Yrotation
										End Site
										{
OFFSET 0 -0.582190 -0.000000
										}
									}
								}
								JOINT LThumb
								{
OFFSET 0 0.000000 0.000000
CHANNELS 3 Zrotation Xrotation Yrotation
									End Site
									{
OFFSET 0 -0.591080 0.591080
									}
								}
							}
						}
					}
				}
				JOINT RightCollar
				{
					OFFSET 0 0 0
					CHANNELS 3 Zrotation Yrotation Xrotation
					JOINT RightShoulder
					{
						OFFSET -3.41176 1.18605 -0.57927
CHANNELS 3 Zrotation Xrotation Yrotation
						JOINT RightElbow
						{
OFFSET 0 -5.447290 -0.000000
CHANNELS 3 Zrotation Xrotation Yrotation
							JOINT RightWrist
							{
OFFSET 0 -3.088210 -0.000000
CHANNELS 3 Zrotation Xrotation Yrotation
								JOINT rhand
								{
									OFFSET 0 0 0
CHANNELS 3 Zrotation Xrotation Yrotation
									JOINT RFingers
									{
OFFSET 0 -0.821050 -0.000000
CHANNELS 3 Zrotation Xrotation Yrotation
										End Site
										{
OFFSET 0 -0.661950 -0.000000
										}
									}
								}
								JOINT RThumb
								{
OFFSET 0 0.000000 0.000000
CHANNELS 3 Zrotation Xrotation Yrotation
									End Site
									{
OFFSET 0 -0.672060 0.672060
									}
								}
							}
						}
					}
				}
			}
		}
	}
}
MOTION
Frames: 10
Frame Time: 0.008333333333333333
3.296600 17.659400 0.101200 26.562800 85.623800 26.693100 0.000000 0.000000 0.000000 -18.777500 3.031200 -0.447600 0.251100 3.224300 8.904000 0.327100 -3.120900 -10.180300 0.034500 -1.198600 -3.295400 0.000000 0.000000 0.000000 16.384800 5.015700 -2.860700 -1.321100 -7.279400 20.545800 -1.326800 1.527200 -21.332300 -0.147800 2.477100 -6.826100 4.104700 -0.332600 10.062400 -0.336500 0.054600 -1.604900 -2.679200 -0.153900 -7.356100 -3.979600 -4.123100 -7.423700 3.884900 -5.424800 7.391300 1.691000 -2.618500 4.011200 -0.000000 -0.000000 0.000000 9.760800 1.986100 -43.561800 20.902300 -31.714100 5.998500 13.714200 -33.090400 -5.708800 0.000000 0.000000 0.000000 -7.125000 0.000000 0.000000 -10.835200 35.677400 -2.519300 -0.000000 -0.000000 0.000000 -13.874400 8.568300 21.053400 -43.564500 -50.045500 -21.132500 -1.519500 15.753500 -21.606600 0.000000 0.000000 0.000000 7.125000 0.000000 -0.000000 17.095900 9.101200 14.872500
3.341188 17.661102 0.067191 26.030244 86.839599 26.195198 0.000000 0.000000 0.000000 -18.207920 2.163626 -0.802585 0.311732 3.589461 9.924332 0.350751 -3.703529 -10.530183 0.040601 -1.299778 -3.573943 0.000000 0.000000 0.000000 16.935622 4.208203 -2.092811 -1.171674 -6.870749 19.333185 -1.320380 0.940684 -21.442361 -0.148489 2.481899 -6.839631 3.845110 -0.309943 9.425538 -0.437408 0.025566 -2.117422 -2.633245 -0.171672 -7.540678 -3.904937 -4.134276 -7.352624 4.199697 -5.490065 7.916809 1.781603 -2.630314 4.198578 0.000000 0.000000 0.000000 9.264357 2.792682 -42.762217 22.157295 -33.154330 6.671673 14.590002 -33.615616 -6.029103 0.000000 0.000000 0.000000 -7.125000 0.000000 0.000000 -10.162998 36.048286 -2.265542 0.000000 0.000000 0.000000 -9.198965 9.453574 16.933422 -39.545251 -47.797546 -18.101844 -1.851310 17.609351 -21.589187 0.000000 0.000000 0.000000 7.125000 0.000000 0.000000 16.893446 9.098780 14.679915
3.389353 17.662544 0.033763 32.047042 87.727297 31.979737 0.000000 0.000000 0.000000 -18.128412 1.697293 -0.362054 0.317095 3.619811 10.009394 0.344500 -4.067626 -10.438711 0.039118 -1.276379 -3.509648 0.000000 0.000000 0.000000 17.072533 3.511846 -1.146600 -1.065183 -6.561508 18.422666 -1.314732 0.254492 -21.607614 -0.226507 3.062764 -8.453565 3.132382 -0.280996 8.885551 -0.521440 -0.041955 -2.473828 -2.308260 -0.180084 -7.612494 -3.939697 -4.245716 -7.383803 4.584705 -5.690902 8.644520 1.710489 -2.691903 4.033731 0.000000 0.000000 0.000000 8.611449 3.233486 -41.361219 22.694860 -33.753451 6.968011 14.083146 -33.413587 -6.632778 0.000000 0.000000 0.000000 -7.125000 0.000000 0.000000 -10.680437 36.631441 -2.229514 0.000000 0.000000 0.000000 -6.170835 9.738202 14.866478 -36.114624 -45.590654 -15.604717 -1.580086 16.028663 -20.101953 0.000000 0.000000 0.000000 7.125000 0.000000 0.000000 17.125620 10.535556 14.380540
3.432461 17.659847 0.004172 19.835848 88.487293 19.832784 0.000000 0.000000 0.000000 -17.427733 1.444914 -0.767815 0.372654 3.920893 10.854342 0.350253 -4.790981 -10.561225 0.032172 -1.156904 -3.180608 0.000000 0.000000 0.000000 17.766435 3.049838 -0.532386 -0.952084 -6.213647 17.405673 -1.303296 -0.032043 -21.608211 -0.197266 2.859085 -7.886821 2.889577 -0.220369 8.187808 -0.370558 0.008562 -2.894767 -2.018417 -0.144033 -7.655767 -4.072593 -4.259764 -7.146161 4.720521 -5.697183 8.020584 1.980720 -2.713836 4.235253 0.000000 0.000000 0.000000 7.740204 3.355470 -38.987605 22.347971 -33.368051 6.776231 13.799525 -32.587980 -6.161877 0.000000 0.000000 0.000000 -7.125000 0.000000 0.000000 -10.837837 36.139459 -2.395685 0.000000 0.000000 0.000000 -4.234105 9.734396 13.332653 -33.665914 -43.835398 -13.881240 -2.658932 19.132027 -20.302247 0.000000 0.000000 0.000000 7.125000 0.000000 0.000000 16.445653 10.284367 13.843450
3.468978 17.658876 -0.030520 21.595410 88.968614 21.574921 0.000000 0.000000 0.000000 -17.395636 1.268904 -0.829513 0.396615 4.043542 11.199154 0.357463 -5.231864 -10.705693 0.039115 -1.276359 -3.509563 0.000000 0.000000 0.000000 17.767352 2.486775 -0.114993 -0.879563 -5.978792 16.722973 -1.294729 -0.029158 -21.535949 -0.153988 2.527829 -6.966868 2.388563 -0.227906 7.708942 -0.470213 -0.069374 -3.259901 -1.829818 -0.163838 -7.771762 -3.990036 -4.276484 -7.085238 4.944240 -5.743494 7.779694 2.040198 -2.725974 4.145691 0.000000 0.000000 0.000000 7.300033 3.842576 -34.959439 22.725070 -33.786293 6.985015 15.344995 -31.003775 -7.088117 0.000000 0.000000 0.000000 -7.125000 0.000000 0.000000 -9.702226 37.169922 -1.890976 0.000000 0.000000 0.000000 -2.855101 9.562207 11.306242 -32.689449 -43.089993 -13.209437 -3.952125 19.031509 -20.440251 0.000000 0.000000 0.000000 7.125000 0.000000 0.000000 15.633816 10.072394 13.172008
3.495775 17.659080 -0.067842 2.181435 89.347494 2.128699 0.000000 0.000000 0.000000 -17.101685 1.271487 -1.147228 0.444479 4.277689 11.859236 0.350941 -5.782141 -10.684715 0.035237 -1.208135 -3.321742 0.000000 0.000000 0.000000 18.001370 1.909289 0.288466 -0.805834 -5.729087 16.000446 -1.252121 -0.243147 -21.251406 -0.205605 2.917748 -8.049966 2.310124 -0.217177 7.448996 -0.469245 -0.062586 -3.557950 -1.785985 -0.159617 -7.940412 -4.082807 -4.309211 -7.082902 5.207625 -5.792852 7.511955 2.144189 -2.743439 4.068449 0.000000 0.000000 0.000000 7.493723 4.756852 -30.857831 24.851061 -36.049854 8.202718 15.012138 -30.993061 -6.798335 0.000000 0.000000 0.000000 -7.125000 0.000000 0.000000 -9.933990 36.854387 -2.014763 0.000000 0.000000 0.000000 -2.160057 9.717082 8.985439 -34.828916 -44.688204 -14.693423 -5.683428 16.738736 -19.747117 0.000000 0.000000 0.000000 7.125000 0.000000 0.000000 14.564528 10.625900 12.034946
3.523430 17.653795 -0.108826 -6.439488 89.383276 -6.745078 0.000000 0.000000 0.000000 -17.142952 1.331857 -0.966350 0.470456 4.399002 12.202054 0.368283 -5.921265 -10.946386 0.035827 -1.218281 -3.349624 0.000000 0.000000 0.000000 17.955790 1.619816 0.892669 -0.755291 -5.550782 15.486394 -1.234017 -0.285159 -21.112320 -0.205426 2.917963 -8.050374 2.217178 -0.054863 7.307896 -0.638145 0.130901 -3.608261 -1.938897 -0.064647 -7.902488 -4.206105 -4.342601 -6.985257 5.700371 -5.848139 6.923481 2.333351 -2.758809 3.871710 0.000000 0.000000 0.000000 8.429906 6.255362 -27.327622 31.880621 -42.443978 12.662927 14.672176 -31.307788 -7.395802 0.000000 0.000000 0.000000 -7.125000 0.000000 0.000000 -10.317610 37.440397 -1.944018 0.000000 0.000000 0.000000 -2.838451 10.276445 8.270223 -41.047433 -48.674530 -19.223351 -7.293771 15.762190 -19.734968 0.000000 0.000000 0.000000 7.125000 0.000000 0.000000 13.542777 10.518867 11.167940
3.540557 17.656087 -0.144405 4.480734 89.430002 4.099560 0.000000 0.000000 0.000000 -17.407504 1.352909 -0.702385 0.454845 4.326479 11.996921 0.362442 -5.868474 -10.857557 0.033563 -1.182461 -3.250943 0.000000 0.000000 0.000000 17.735288 1.701267 1.254540 -0.729879 -5.458357 15.220729 -1.246160 -0.402581 -21.257852 -0.191288 2.816943 -7.769387 1.920409 0.165616 7.156899 -0.872784 0.375226 -3.561840 -2.051702 0.066028 -7.751861 -4.405001 -4.504206 -6.515796 6.353982 -6.044482 5.403110 2.586120 -2.856342 3.300463 0.000000 0.000000 0.000000 11.460217 7.393362 -30.346981 47.112012 -51.760499 23.886775 10.171371 -36.913793 -10.902854 0.000000 0.000000 0.000000 -7.125000 0.000000 0.000000 -14.871146 40.596382 -1.656168 0.000000 0.000000 0.000000 -5.352077 11.431557 10.423820 -54.990231 -54.818924 -30.208241 -0.526816 15.529772 -21.067552 0.000000 0.000000 0.000000 7.125000 0.000000 0.000000 17.727841 9.668502 15.268460
3.546573 17.653749 -0.172730 -38.854050 89.762271 -39.365477 0.000000 0.000000 0.000000 -17.260761 1.411537 -1.038301 0.506659 4.562783 12.665670 0.349134 -6.420094 -10.768180 0.030991 -1.136747 -3.125116 0.000000 0.000000 0.000000 17.869232 1.448012 1.593896 -0.700097 -5.348330 14.904898 -1.244442 -0.637595 -21.329221 -0.176296 2.704748 -7.457736 1.961321 0.390123 7.023189 -1.036167 0.668333 -3.610669 -2.285810 0.203710 -7.709897 -4.509404 -4.661694 -5.804712 6.585763 -6.239501 4.467157 2.683978 -2.968353 2.872409 0.000000 0.000000 0.000000 15.381632 6.328355 -37.065952 67.768130 -58.041699 40.873866 6.380730 -40.571547 -14.281205 0.000000 0.000000 0.000000 -7.125000 0.000000 0.000000 -19.136350 43.484156 -0.745944 0.000000 0.000000 0.000000 -10.142726 12.949467 15.960565 -74.835305 -59.107371 -46.906847 2.960743 14.384782 -20.214597 0.000000 0.000000 0.000000 7.125000 0.000000 0.000000 19.907319 10.616119 16.985966
3.558740 17.650105 -0.182900 -147.570452 89.084043 -148.423968 0.000000 0.000000 0.000000 -16.861412 1.213788 -1.072839 0.554872 4.771612 13.258330 0.322540 -7.212637 -10.583005 0.017100 -0.844854 -2.321947 0.000000 0.000000 0.000000 18.291236 0.857785 2.336503 -0.646362 -5.142911 14.316582 -1.262234 -1.229675 -21.707817 -0.187726 2.790683 -7.696546 1.784995 0.331732 6.729469 -1.053037 0.567873 -3.628640 -2.186788 0.165709 -7.564685 -4.636499 -4.513139 -5.312841 6.840298 -6.048966 4.253411 2.812392 -2.878502 2.713249 0.000000 0.000000 0.000000 18.933154 2.899506 -46.395001 87.337781 -59.967088 57.694851 4.369398 -41.682777 -14.114595 0.000000 0.000000 0.000000 -7.125000 0.000000 0.000000 -20.819293 43.114296 -1.016541 0.000000 0.000000 0.000000 -16.733309 12.412955 23.559664 -93.031382 -59.960371 -62.624827 5.286983 13.854132 -20.514261 0.000000 0.000000 0.000000 7.125000 0.000000 0.000000 21.281663 10.391082 18.450393
